<svg width="169" height="27" viewBox="0 0 169 27" fill="none" xmlns="http://www.w3.org/2000/svg">
<path d="M3.08301 22H0.387695V0.90625H4.16699L16.9844 15.3936V0.90625H19.665V22H15.8857L3.08301 7.52734V22ZM44.5234 11.9072V12.1855C44.5039 13.0059 44.416 13.8555 44.2598 14.7344C44.1133 15.6133 43.9033 16.4922 43.6299 17.3711C43.3564 18.25 43.0293 19.1191 42.6484 19.9785C42.2676 20.8379 41.8379 21.6582 41.3594 22.4395C40.8906 23.2305 40.3828 23.9678 39.8359 24.6514C39.2891 25.3447 38.7129 25.9551 38.1074 26.4824L35.9248 25.2227C36.2666 24.6465 36.5742 24.0166 36.8477 23.333C37.1309 22.6592 37.3848 21.9512 37.6094 21.209C37.834 20.4668 38.0244 19.7051 38.1807 18.9238C38.3467 18.1426 38.4834 17.3662 38.5908 16.5947C38.6982 15.8232 38.7764 15.0664 38.8252 14.3242C38.8838 13.5723 38.9131 12.8594 38.9131 12.1855C38.9131 11.6582 38.9082 11.0625 38.8984 10.3984C38.8984 9.72461 38.8594 9.04102 38.7812 8.34766C38.7129 7.6543 38.5957 6.98047 38.4297 6.32617C38.2637 5.66211 38.0146 5.07129 37.6826 4.55371C37.3604 4.03613 36.9404 3.62109 36.4229 3.30859C35.915 2.99609 35.2803 2.83984 34.5186 2.83984C33.8447 2.83984 33.2637 2.95703 32.7754 3.19141C32.2969 3.41602 31.8867 3.72363 31.5449 4.11426C31.2129 4.49512 30.9443 4.93945 30.7393 5.44727C30.5439 5.95508 30.3877 6.49219 30.2705 7.05859C30.1631 7.61523 30.0898 8.18164 30.0508 8.75781C30.0215 9.32422 30.0068 9.86133 30.0068 10.3691V14.4561H36.3203V16.873H30.0068V22H24.1914V11.2773C24.1914 9.74414 24.4355 8.31836 24.9238 7C25.4121 5.68164 26.1006 4.53906 26.9893 3.57227C27.8877 2.5957 28.9619 1.83398 30.2119 1.28711C31.4717 0.730469 32.873 0.452148 34.416 0.452148C35.4609 0.452148 36.4375 0.603516 37.3457 0.90625C38.2637 1.19922 39.0986 1.60938 39.8506 2.13672C40.6025 2.6543 41.2715 3.27441 41.8574 3.99707C42.4531 4.70996 42.9463 5.49121 43.3369 6.34082C43.7373 7.19043 44.04 8.08887 44.2451 9.03613C44.4502 9.9834 44.543 10.9404 44.5234 11.9072ZM67.7412 16.2725C67.7412 16.8682 67.6436 17.4248 67.4482 17.9424C67.2529 18.46 66.9844 18.9336 66.6426 19.3633C66.3008 19.7832 65.9004 20.1592 65.4414 20.4912C64.9922 20.8232 64.5039 21.1016 63.9766 21.3262C63.459 21.5508 62.9219 21.7217 62.3652 21.8389C61.8086 21.9463 61.2617 22 60.7246 22H48.3174V0.90625H59.6553C60.1533 0.90625 60.6758 0.945312 61.2227 1.02344C61.7695 1.0918 62.3018 1.2041 62.8193 1.36035C63.3467 1.5166 63.8447 1.72168 64.3135 1.97559C64.792 2.22949 65.207 2.54199 65.5586 2.91309C65.9199 3.27441 66.2031 3.69434 66.4082 4.17285C66.623 4.65137 66.7305 5.19824 66.7305 5.81348C66.7305 6.39941 66.6133 6.93164 66.3789 7.41016C66.1445 7.88867 65.8271 8.31836 65.4268 8.69922C65.0361 9.07031 64.582 9.40234 64.0645 9.69531C63.5566 9.97852 63.0195 10.2275 62.4531 10.4424C63.166 10.6377 63.8398 10.8965 64.4746 11.2188C65.1191 11.541 65.6807 11.9365 66.1592 12.4053C66.6475 12.874 67.0332 13.4307 67.3164 14.0752C67.5996 14.71 67.7412 15.4424 67.7412 16.2725ZM60.8271 6.32617C60.8271 5.13477 60.5098 4.26562 59.875 3.71875C59.25 3.17188 58.3564 2.89844 57.1943 2.89844H54.1328V9.73926H56.6963C57.2236 9.73926 57.7363 9.67578 58.2344 9.54883C58.7324 9.41211 59.1719 9.20703 59.5527 8.93359C59.9434 8.65039 60.251 8.29395 60.4756 7.86426C60.71 7.43457 60.8271 6.92188 60.8271 6.32617ZM61.8525 15.9062C61.8525 15.3301 61.7793 14.793 61.6328 14.2949C61.4863 13.7871 61.2617 13.3525 60.959 12.9912C60.6562 12.6201 60.2754 12.332 59.8164 12.127C59.3672 11.9121 58.835 11.8047 58.2197 11.8047H54.1328V19.9492H57.707C58.3027 19.9492 58.8545 19.8516 59.3623 19.6562C59.8701 19.4609 60.3096 19.1875 60.6807 18.8359C61.0518 18.4844 61.3398 18.0596 61.5449 17.5615C61.75 17.0635 61.8525 16.5117 61.8525 15.9062ZM80.3975 22H74.582V3.60156H68.8398V0.90625H86.1396V3.60156H80.3975V22ZM107.863 11.9072V12.1855C107.844 13.0059 107.756 13.8555 107.6 14.7344C107.453 15.6133 107.243 16.4922 106.97 17.3711C106.696 18.25 106.369 19.1191 105.988 19.9785C105.607 20.8379 105.178 21.6582 104.699 22.4395C104.23 23.2305 103.723 23.9678 103.176 24.6514C102.629 25.3447 102.053 25.9551 101.447 26.4824L99.2646 25.2227C99.6064 24.6465 99.9141 24.0166 100.188 23.333C100.471 22.6592 100.725 21.9512 100.949 21.209C101.174 20.4668 101.364 19.7051 101.521 18.9238C101.687 18.1426 101.823 17.3662 101.931 16.5947C102.038 15.8232 102.116 15.0664 102.165 14.3242C102.224 13.5723 102.253 12.8594 102.253 12.1855C102.253 11.6582 102.248 11.0625 102.238 10.3984C102.238 9.72461 102.199 9.04102 102.121 8.34766C102.053 7.6543 101.936 6.98047 101.77 6.32617C101.604 5.66211 101.354 5.07129 101.022 4.55371C100.7 4.03613 100.28 3.62109 99.7627 3.30859C99.2549 2.99609 98.6201 2.83984 97.8584 2.83984C97.1846 2.83984 96.6035 2.95703 96.1152 3.19141C95.6367 3.41602 95.2266 3.72363 94.8848 4.11426C94.5527 4.49512 94.2842 4.93945 94.0791 5.44727C93.8838 5.95508 93.7275 6.49219 93.6104 7.05859C93.5029 7.61523 93.4297 8.18164 93.3906 8.75781C93.3613 9.32422 93.3467 9.86133 93.3467 10.3691V14.4561H99.6602V16.873H93.3467V22H87.5312V11.2773C87.5312 9.74414 87.7754 8.31836 88.2637 7C88.752 5.68164 89.4404 4.53906 90.3291 3.57227C91.2275 2.5957 92.3018 1.83398 93.5518 1.28711C94.8115 0.730469 96.2129 0.452148 97.7559 0.452148C98.8008 0.452148 99.7773 0.603516 100.686 0.90625C101.604 1.19922 102.438 1.60938 103.19 2.13672C103.942 2.6543 104.611 3.27441 105.197 3.99707C105.793 4.70996 106.286 5.49121 106.677 6.34082C107.077 7.19043 107.38 8.08887 107.585 9.03613C107.79 9.9834 107.883 10.9404 107.863 11.9072ZM114.353 22H111.657V0.90625H115.437L128.254 15.3936V0.90625H130.935V22H127.155L114.353 7.52734V22ZM155.793 11.9072V12.1855C155.773 13.0059 155.686 13.8555 155.529 14.7344C155.383 15.6133 155.173 16.4922 154.899 17.3711C154.626 18.25 154.299 19.1191 153.918 19.9785C153.537 20.8379 153.107 21.6582 152.629 22.4395C152.16 23.2305 151.652 23.9678 151.105 24.6514C150.559 25.3447 149.982 25.9551 149.377 26.4824L147.194 25.2227C147.536 24.6465 147.844 24.0166 148.117 23.333C148.4 22.6592 148.654 21.9512 148.879 21.209C149.104 20.4668 149.294 19.7051 149.45 18.9238C149.616 18.1426 149.753 17.3662 149.86 16.5947C149.968 15.8232 150.046 15.0664 150.095 14.3242C150.153 13.5723 150.183 12.8594 150.183 12.1855C150.183 11.6582 150.178 11.0625 150.168 10.3984C150.168 9.72461 150.129 9.04102 150.051 8.34766C149.982 7.6543 149.865 6.98047 149.699 6.32617C149.533 5.66211 149.284 5.07129 148.952 4.55371C148.63 4.03613 148.21 3.62109 147.692 3.30859C147.185 2.99609 146.55 2.83984 145.788 2.83984C145.114 2.83984 144.533 2.95703 144.045 3.19141C143.566 3.41602 143.156 3.72363 142.814 4.11426C142.482 4.49512 142.214 4.93945 142.009 5.44727C141.813 5.95508 141.657 6.49219 141.54 7.05859C141.433 7.61523 141.359 8.18164 141.32 8.75781C141.291 9.32422 141.276 9.86133 141.276 10.3691V14.4561H147.59V16.873H141.276V22H135.461V11.2773C135.461 9.74414 135.705 8.31836 136.193 7C136.682 5.68164 137.37 4.53906 138.259 3.57227C139.157 2.5957 140.231 1.83398 141.481 1.28711C142.741 0.730469 144.143 0.452148 145.686 0.452148C146.73 0.452148 147.707 0.603516 148.615 0.90625C149.533 1.19922 150.368 1.60938 151.12 2.13672C151.872 2.6543 152.541 3.27441 153.127 3.99707C153.723 4.70996 154.216 5.49121 154.606 6.34082C155.007 7.19043 155.31 8.08887 155.515 9.03613C155.72 9.9834 155.812 10.9404 155.793 11.9072Z" fill="#1D2228"/>
<path d="M168.649 18.3379C168.649 18.9564 168.535 19.5423 168.308 20.0957C168.08 20.6328 167.762 21.1048 167.355 21.5117C166.949 21.9023 166.477 22.2116 165.939 22.4395C165.402 22.6836 164.825 22.8057 164.206 22.8057C163.588 22.8057 163.01 22.6836 162.473 22.4395C161.936 22.2116 161.464 21.9023 161.057 21.5117C160.65 21.1048 160.332 20.6328 160.104 20.0957C159.877 19.5423 159.763 18.9564 159.763 18.3379C159.763 17.7357 159.877 17.166 160.104 16.6289C160.332 16.0755 160.65 15.6035 161.057 15.2129C161.464 14.806 161.936 14.4886 162.473 14.2607C163.01 14.0166 163.588 13.8945 164.206 13.8945C164.825 13.8945 165.402 14.0166 165.939 14.2607C166.477 14.4886 166.949 14.806 167.355 15.2129C167.762 15.6035 168.08 16.0755 168.308 16.6289C168.535 17.166 168.649 17.7357 168.649 18.3379Z" fill="#FB8122"/>
</svg>
